<mxfile host="app.diagrams.net" agent="Mozilla/5.0 (Windows NT 10.0; Win64; x64) AppleWebKit/537.36 (KHTML, like Gecko) Chrome/141.0.0.0 Safari/537.36 Edg/141.0.0.0" version="28.2.8">
  <diagram name="Страница — 1" id="x2lEu_UDh_w9RI0CHZWa">
    <mxGraphModel grid="1" page="1" gridSize="10" guides="1" tooltips="1" connect="1" arrows="1" fold="1" pageScale="1" pageWidth="827" pageHeight="1169" math="0" shadow="0">
      <root>
        <mxCell id="0" />
        <mxCell id="1" parent="0" />
        <mxCell id="lHExN2M5WyhE-lYZgi9v-1" value="&lt;div&gt;Users&lt;/div&gt;&lt;div&gt;---------&lt;/div&gt;&lt;div&gt;id (PK)&lt;/div&gt;&lt;div&gt;name&lt;/div&gt;&lt;div&gt;email&lt;/div&gt;&lt;div&gt;phone&lt;/div&gt;&lt;div&gt;&lt;br&gt;&lt;/div&gt;" style="whiteSpace=wrap;html=1;aspect=fixed;" vertex="1" parent="1">
          <mxGeometry x="304" y="80" width="120" height="120" as="geometry" />
        </mxCell>
        <mxCell id="lHExN2M5WyhE-lYZgi9v-2" value="&lt;div&gt;Hotels&lt;/div&gt;&lt;div&gt;---------&lt;/div&gt;&lt;div&gt;id (PK)&lt;/div&gt;&lt;div&gt;hotel_name&lt;/div&gt;&lt;div&gt;location&lt;/div&gt;&lt;div&gt;&lt;br&gt;&lt;/div&gt;" style="whiteSpace=wrap;html=1;aspect=fixed;" vertex="1" parent="1">
          <mxGeometry x="440" y="220" width="120" height="120" as="geometry" />
        </mxCell>
        <mxCell id="lHExN2M5WyhE-lYZgi9v-3" value="&lt;div&gt;Rooms&lt;/div&gt;&lt;div&gt;---------&lt;/div&gt;&lt;div&gt;id (PK)&lt;/div&gt;&lt;div&gt;hotel_id (FK)&lt;/div&gt;&lt;div&gt;room_number&lt;/div&gt;&lt;div&gt;room_type&lt;/div&gt;&lt;div&gt;price_per_night&lt;/div&gt;&lt;div&gt;&lt;br&gt;&lt;/div&gt;" style="whiteSpace=wrap;html=1;aspect=fixed;" vertex="1" parent="1">
          <mxGeometry x="120" y="200" width="130" height="130" as="geometry" />
        </mxCell>
        <mxCell id="lHExN2M5WyhE-lYZgi9v-4" value="&lt;div&gt;Reservations&lt;/div&gt;&lt;div&gt;---------&lt;/div&gt;&lt;div&gt;id (PK)&lt;/div&gt;&lt;div&gt;user_id (FK)&lt;/div&gt;&lt;div&gt;room_id (FK)&lt;/div&gt;&lt;div&gt;date_start&lt;/div&gt;&lt;div&gt;date_end&lt;/div&gt;&lt;div&gt;status&lt;/div&gt;&lt;div&gt;&lt;br&gt;&lt;/div&gt;" style="whiteSpace=wrap;html=1;aspect=fixed;" vertex="1" parent="1">
          <mxGeometry x="100" y="10" width="140" height="140" as="geometry" />
        </mxCell>
        <mxCell id="0rAQ4XYA2KwmF-D6hNWL-1" value="&lt;div&gt;Payments&lt;/div&gt;&lt;div&gt;---------&lt;/div&gt;&lt;div&gt;id (PK)&lt;/div&gt;&lt;div&gt;reservation_id (FK)&lt;/div&gt;&lt;div&gt;amount&lt;/div&gt;&lt;div&gt;payment_date&lt;/div&gt;&lt;div&gt;payment_method&lt;/div&gt;&lt;div&gt;&lt;br&gt;&lt;/div&gt;" style="whiteSpace=wrap;html=1;aspect=fixed;" vertex="1" parent="1">
          <mxGeometry x="460" y="10" width="150" height="150" as="geometry" />
        </mxCell>
        <mxCell id="0rAQ4XYA2KwmF-D6hNWL-8" style="edgeStyle=orthogonalEdgeStyle;rounded=0;orthogonalLoop=1;jettySize=auto;html=1;exitX=1;exitY=0.25;exitDx=0;exitDy=0;entryX=-0.011;entryY=0.217;entryDx=0;entryDy=0;entryPerimeter=0;" edge="1" parent="1" source="lHExN2M5WyhE-lYZgi9v-4" target="0rAQ4XYA2KwmF-D6hNWL-1">
          <mxGeometry relative="1" as="geometry">
            <Array as="points">
              <mxPoint x="240" y="43" />
              <mxPoint x="350" y="43" />
            </Array>
          </mxGeometry>
        </mxCell>
        <mxCell id="0rAQ4XYA2KwmF-D6hNWL-23" value="1 — M" style="edgeLabel;html=1;align=center;verticalAlign=middle;resizable=0;points=[];" connectable="0" vertex="1" parent="0rAQ4XYA2KwmF-D6hNWL-8">
          <mxGeometry x="-0.1852" y="2" relative="1" as="geometry">
            <mxPoint as="offset" />
          </mxGeometry>
        </mxCell>
        <mxCell id="0rAQ4XYA2KwmF-D6hNWL-17" style="edgeStyle=orthogonalEdgeStyle;rounded=0;orthogonalLoop=1;jettySize=auto;html=1;entryX=1.01;entryY=0.568;entryDx=0;entryDy=0;entryPerimeter=0;" edge="1" parent="1" source="lHExN2M5WyhE-lYZgi9v-1" target="lHExN2M5WyhE-lYZgi9v-4">
          <mxGeometry relative="1" as="geometry" />
        </mxCell>
        <mxCell id="0rAQ4XYA2KwmF-D6hNWL-18" value="1 — M" style="edgeLabel;html=1;align=center;verticalAlign=middle;resizable=0;points=[];" connectable="0" vertex="1" parent="0rAQ4XYA2KwmF-D6hNWL-17">
          <mxGeometry x="0.2125" y="1" relative="1" as="geometry">
            <mxPoint as="offset" />
          </mxGeometry>
        </mxCell>
        <mxCell id="0rAQ4XYA2KwmF-D6hNWL-19" style="edgeStyle=orthogonalEdgeStyle;rounded=0;orthogonalLoop=1;jettySize=auto;html=1;entryX=1.001;entryY=0.613;entryDx=0;entryDy=0;entryPerimeter=0;" edge="1" parent="1" source="lHExN2M5WyhE-lYZgi9v-2" target="lHExN2M5WyhE-lYZgi9v-3">
          <mxGeometry relative="1" as="geometry" />
        </mxCell>
        <mxCell id="0rAQ4XYA2KwmF-D6hNWL-20" value="1 — M" style="edgeLabel;html=1;align=center;verticalAlign=middle;resizable=0;points=[];" connectable="0" vertex="1" parent="0rAQ4XYA2KwmF-D6hNWL-19">
          <mxGeometry x="-0.0543" relative="1" as="geometry">
            <mxPoint as="offset" />
          </mxGeometry>
        </mxCell>
        <mxCell id="0rAQ4XYA2KwmF-D6hNWL-21" style="edgeStyle=orthogonalEdgeStyle;rounded=0;orthogonalLoop=1;jettySize=auto;html=1;entryX=0.608;entryY=1.005;entryDx=0;entryDy=0;entryPerimeter=0;" edge="1" parent="1" source="lHExN2M5WyhE-lYZgi9v-3" target="lHExN2M5WyhE-lYZgi9v-4">
          <mxGeometry relative="1" as="geometry" />
        </mxCell>
        <mxCell id="0rAQ4XYA2KwmF-D6hNWL-22" value="1 — M" style="edgeLabel;html=1;align=center;verticalAlign=middle;resizable=0;points=[];" connectable="0" vertex="1" parent="0rAQ4XYA2KwmF-D6hNWL-21">
          <mxGeometry x="0.0445" y="2" relative="1" as="geometry">
            <mxPoint as="offset" />
          </mxGeometry>
        </mxCell>
        <mxCell id="0rAQ4XYA2KwmF-D6hNWL-25" value="Это модель базы данных для системы бронирования.&lt;br data-start=&quot;1158&quot; data-end=&quot;1161&quot;&gt;&lt;br&gt;Пользователь может создавать бронирования, отели содержат комнаты, на каждую бронь могут быть платежи.&lt;br data-start=&quot;1265&quot; data-end=&quot;1268&quot;&gt;&lt;br&gt;Продумала ключи и связи, чтобы обеспечить корректную структуру данных.&lt;br data-start=&quot;1340&quot; data-end=&quot;1343&quot;&gt;&lt;br&gt;Использовала MySQL и draw.io" style="text;html=1;whiteSpace=wrap;strokeColor=none;fillColor=none;align=center;verticalAlign=middle;rounded=0;opacity=90;fontSize=9;" vertex="1" parent="1">
          <mxGeometry x="47" y="350" width="600" height="120" as="geometry" />
        </mxCell>
      </root>
    </mxGraphModel>
  </diagram>
</mxfile>
